<svg width="56" height="56" viewBox="0 0 56 56" fill="none" xmlns="http://www.w3.org/2000/svg">
<path d="M14.38 34.61C14.18 34.61 13.92 34.58 13.6 34.52C13.28 34.46 12.95 34.34 12.61 34.16C12.29 34 12.02 33.74 11.8 33.38C11.58 33.02 11.47 32.54 11.47 31.94C11.47 31.44 11.57 30.79 11.77 29.99C11.97 29.17 12.31 27.98 12.79 26.42C13.15 25.24 13.5 24.08 13.84 22.94C14.2 21.78 14.49 20.58 14.71 19.34C14.95 18.1 15.07 16.78 15.07 15.38C15.07 14.56 15.02 13.87 14.92 13.31C14.82 12.75 14.63 12.33 14.35 12.05C14.09 11.75 13.72 11.6 13.24 11.6C12.76 11.6 12.34 11.73 11.98 11.99C11.62 12.25 11.32 12.6 11.08 13.04C10.84 13.46 10.66 13.93 10.54 14.45C10.42 14.97 10.36 15.49 10.36 16.01C10.36 16.89 10.51 17.62 10.81 18.2C9.83 18.2 9.12 17.97 8.68 17.51C8.24 17.05 8.02 16.48 8.02 15.8C8.02 15.2 8.17 14.58 8.47 13.94C8.77 13.3 9.18 12.72 9.7 12.2C10.24 11.66 10.86 11.23 11.56 10.91C12.26 10.57 13.01 10.4 13.81 10.4C15.17 10.4 16.2 10.9 16.9 11.9C17.62 12.9 17.98 14.32 17.98 16.16C17.98 17.54 17.79 18.98 17.41 20.48C17.05 21.96 16.59 23.58 16.03 25.34C15.83 25.98 15.59 26.69 15.31 27.47C15.05 28.23 14.81 29.02 14.59 29.84C14.39 30.64 14.29 31.44 14.29 32.24C14.29 32.62 14.33 32.88 14.41 33.02C14.51 33.18 14.69 33.26 14.95 33.26C15.49 33.26 16.06 33.03 16.66 32.57C17.28 32.11 17.9 31.49 18.52 30.71C19.14 29.93 19.73 29.06 20.29 28.1C20.87 27.14 21.4 26.16 21.88 25.16C22.36 24.14 22.76 23.18 23.08 22.28C23.4 21.36 23.61 20.56 23.71 19.88C24.47 19.88 25.06 20.09 25.48 20.51C25.9 20.93 26.11 21.33 26.11 21.71C26.11 21.91 26.02 22.25 25.84 22.73C25.68 23.21 25.4 23.92 25 24.86C24.68 25.62 24.35 26.43 24.01 27.29C23.67 28.13 23.38 28.97 23.14 29.81C22.92 30.63 22.81 31.4 22.81 32.12C22.81 32.52 22.86 32.81 22.96 32.99C23.08 33.17 23.29 33.26 23.59 33.26C24.15 33.26 24.79 32.98 25.51 32.42C26.25 31.88 27.01 31.14 27.79 30.2C28.57 29.24 29.33 28.17 30.07 26.99C30.81 25.79 31.48 24.55 32.08 23.27C32.68 21.99 33.15 20.73 33.49 19.49C33.85 18.25 34.03 17.12 34.03 16.1C34.03 15 33.83 14.22 33.43 13.76C33.05 13.3 32.57 12.97 31.99 12.77C32.35 12.19 32.73 11.77 33.13 11.51C33.55 11.23 33.92 11.09 34.24 11.09C34.7 11.09 35.17 11.39 35.65 11.99C36.15 12.57 36.4 13.49 36.4 14.75C36.4 15.81 36.19 17.03 35.77 18.41C35.37 19.79 34.81 21.23 34.09 22.73C33.39 24.21 32.58 25.66 31.66 27.08C30.76 28.48 29.79 29.75 28.75 30.89C27.73 32.03 26.7 32.93 25.66 33.59C24.62 34.27 23.63 34.61 22.69 34.61C22.17 34.61 21.7 34.5 21.28 34.28C20.88 34.08 20.56 33.78 20.32 33.38C20.1 33 19.99 32.55 19.99 32.03C19.99 31.79 20.02 31.54 20.08 31.28C20.14 31.02 20.21 30.76 20.29 30.5C19.31 31.74 18.32 32.73 17.32 33.47C16.34 34.23 15.36 34.61 14.38 34.61Z" fill="#4758DC"/>
<path d="M33.58 50.61C32.36 50.61 31.33 50.35 30.49 49.83C29.67 49.33 29.26 48.6 29.26 47.64C29.26 47.02 29.45 46.46 29.83 45.96C30.23 45.46 30.8 45.13 31.54 44.97C31.42 45.51 31.33 45.92 31.27 46.2C31.23 46.48 31.21 46.75 31.21 47.01C31.21 47.81 31.43 48.43 31.87 48.87C32.31 49.33 33 49.56 33.94 49.56C34.62 49.56 35.22 49.44 35.74 49.2C36.28 48.98 36.75 48.66 37.15 48.24C37.57 47.84 37.93 47.37 38.23 46.83C38.55 46.29 38.82 45.7 39.04 45.06C39.28 44.44 39.48 43.8 39.64 43.14C39.96 41.86 40.21 40.61 40.39 39.39C40.57 38.15 40.78 37.15 41.02 36.39C40.24 37.65 39.34 38.68 38.32 39.48C37.3 40.26 36.11 40.65 34.75 40.65C33.41 40.65 32.46 40.28 31.9 39.54C31.34 38.8 31.06 37.89 31.06 36.81C31.06 36.07 31.15 35.27 31.33 34.41C31.53 33.53 31.76 32.64 32.02 31.74C32.28 30.82 32.5 29.94 32.68 29.1C32.88 28.24 32.98 27.48 32.98 26.82C32.98 26.22 32.86 25.71 32.62 25.29C32.4 24.87 31.98 24.66 31.36 24.66C30.82 24.66 30.35 24.82 29.95 25.14C29.57 25.44 29.25 25.84 28.99 26.34C28.75 26.84 28.57 27.37 28.45 27.93C28.33 28.49 28.27 29.03 28.27 29.55C28.27 29.87 28.29 30.14 28.33 30.36C28.39 30.58 28.49 30.87 28.63 31.23C27.65 31.23 26.96 31.01 26.56 30.57C26.16 30.11 25.96 29.56 25.96 28.92C25.96 28.32 26.11 27.7 26.41 27.06C26.71 26.4 27.13 25.8 27.67 25.26C28.23 24.7 28.88 24.25 29.62 23.91C30.36 23.57 31.16 23.4 32.02 23.4C32.82 23.4 33.48 23.55 34 23.85C34.52 24.15 34.9 24.55 35.14 25.05C35.4 25.55 35.53 26.1 35.53 26.7C35.53 27.14 35.46 27.67 35.32 28.29C35.18 28.91 34.97 29.73 34.69 30.75C34.41 31.77 34.16 32.74 33.94 33.66C33.72 34.56 33.61 35.41 33.61 36.21C33.61 37.05 33.77 37.73 34.09 38.25C34.41 38.77 34.96 39.03 35.74 39.03C36.42 39.03 37.06 38.84 37.66 38.46C38.28 38.06 38.86 37.53 39.4 36.87C39.94 36.19 40.43 35.42 40.87 34.56C41.31 33.7 41.69 32.79 42.01 31.83C42.27 31.07 42.53 30.22 42.79 29.28C43.07 28.32 43.36 27.39 43.66 26.49C43.98 25.59 44.31 24.85 44.65 24.27C45.01 23.69 45.39 23.4 45.79 23.4C46.01 23.4 46.31 23.5 46.69 23.7C47.09 23.9 47.47 24.18 47.83 24.54C47.39 25.2 47.01 25.83 46.69 26.43C46.39 27.03 46.1 27.68 45.82 28.38C45.56 29.08 45.29 29.91 45.01 30.87C44.73 31.81 44.42 32.96 44.08 34.32C43.74 35.66 43.34 37.29 42.88 39.21C42.62 40.25 42.32 41.31 41.98 42.39C41.66 43.45 41.26 44.47 40.78 45.45C40.32 46.43 39.76 47.31 39.1 48.09C38.44 48.87 37.66 49.48 36.76 49.92C35.86 50.38 34.8 50.61 33.58 50.61Z" fill="#4758DC"/>
</svg>
