<svg width="250" height="250" viewBox="0 0 250 250" fill="none" xmlns="http://www.w3.org/2000/svg">
<g clip-path="url(#clip0_25_37017)">
<path d="M167.45 79.46C163.27 86.28 153.86 88.89 145.61 91.64C137.37 94.38 128.28 99.24 127.53 106.87C127.06 111.67 130.18 116.26 129.56 121.05C128.28 130.94 113.5 134.46 106.55 142.48C101.55 148.25 101.08 156.4 104.36 162.85C107.64 169.3 114.24 174.11 121.68 176.86C137.04 182.52 155.84 179.59 169.7 170.86C183.56 162.13 192.61 148.23 196.05 133.72C199.49 119.21 197.67 104.14 192.89 90.13C191.12 84.93 188.59 79.45 183.24 76.75C177.89 74.05 169.18 76.09 168.11 81.51" fill="#8B9ACE"/>
<path d="M158.16 134.24C175.585 134.24 189.71 118.83 189.71 99.8199C189.71 80.8103 175.585 65.3999 158.16 65.3999C140.735 65.3999 126.61 80.8103 126.61 99.8199C126.61 118.83 140.735 134.24 158.16 134.24Z" fill="#8B9ACE"/>
<path d="M160.24 161.04C160.24 161.04 130.74 151.81 116.68 184.57H197.68C197.68 184.57 191.86 154.35 160.24 161.04Z" fill="#D3EAE9"/>
<path d="M172.95 127.65L145.43 132.32L145.18 165.94C145.18 165.94 146.76 174.65 160.99 174.89C174.42 175.12 175.32 165.54 175.32 165.54L172.96 127.65H172.95Z" fill="white"/>
<path d="M145.28 151.43C145.28 151.43 162.8 152.9 173.63 138.65L172.94 127.65L145.42 132.32L145.28 151.43Z" fill="#989691"/>
<path d="M192 112.27C192 114.94 188.75 118.73 185.01 117.64C182.44 116.89 179.16 114.94 179.16 112.27C179.16 109.6 182.91 106.91 185.58 106.91C189.9 106.91 192 109.6 192 112.27Z" fill="white"/>
<path d="M187.15 114.25C187.11 113.65 187.21 113.07 187.38 112.51C187.58 111.95 187.78 111.38 188.42 110.9C188.56 110.79 188.84 110.7 189.07 110.7C189.2 110.71 189.34 110.72 189.44 110.76C189.54 110.81 189.64 110.86 189.73 110.93C189.9 111.06 189.99 111.21 190.11 111.35C190.28 111.6 190.27 111.8 190.28 111.96C190.27 112.62 190.07 113.15 189.77 113.68C189.66 113.1 189.62 112.52 189.5 112.05C189.47 111.94 189.42 111.85 189.41 111.87C189.33 111.82 189.25 111.72 189.19 111.7C189.06 111.63 189.09 111.66 188.95 111.73C188.67 111.9 188.36 112.39 188.07 112.83C187.78 113.29 187.49 113.77 187.13 114.24L187.15 114.25Z" fill="#989691"/>
<path d="M128.1 112.27C128.1 114.94 131.35 118.73 135.09 117.64C137.66 116.89 140.94 114.94 140.94 112.27C140.94 109.6 137.19 106.91 134.52 106.91C130.2 106.91 128.1 109.6 128.1 112.27Z" fill="white"/>
<path d="M132.94 114.25C132.58 113.77 132.29 113.29 132 112.84C131.71 112.4 131.4 111.91 131.12 111.74C130.98 111.67 131.02 111.64 130.88 111.71C130.82 111.73 130.74 111.83 130.66 111.88C130.66 111.86 130.6 111.95 130.57 112.06C130.45 112.52 130.41 113.11 130.3 113.69C130.01 113.16 129.81 112.63 129.79 111.97C129.79 111.8 129.79 111.6 129.96 111.36C130.08 111.22 130.17 111.07 130.34 110.94C130.43 110.88 130.53 110.82 130.63 110.77C130.74 110.73 130.88 110.72 131 110.71C131.24 110.71 131.51 110.8 131.65 110.91C132.29 111.4 132.5 111.96 132.69 112.52C132.87 113.08 132.96 113.66 132.92 114.26L132.94 114.25Z" fill="#989691"/>
<path d="M185.56 105.3C186.04 123.97 177.2 141.82 161.84 142.22C146.49 142.61 135.4 126.67 134.92 108C134.44 89.32 144.76 74.99 160.11 74.6C175.46 74.21 185.08 86.64 185.56 105.31V105.3Z" fill="white"/>
<path d="M151.44 106.25C151.41 107.28 150.77 108.11 150.01 108.09C149.24 108.07 148.64 107.22 148.67 106.18C148.7 105.14 149.34 104.32 150.1 104.34C150.87 104.36 151.47 105.21 151.44 106.25Z" fill="#989691"/>
<path d="M171.42 106.25C171.39 107.28 170.75 108.11 169.99 108.09C169.22 108.07 168.62 107.22 168.65 106.18C168.68 105.15 169.32 104.32 170.08 104.34C170.85 104.36 171.45 105.21 171.42 106.25Z" fill="#989691"/>
<path d="M154.26 116.03C154.26 116.03 159.6 127.17 167.71 116.36" stroke="#989691" stroke-miterlimit="10"/>
<path d="M159.35 112.78L162.6 110.72C160.82 109.48 160.06 105.94 160.06 105.94" stroke="#989691" stroke-miterlimit="10"/>
<path d="M173.63 70.6599C168.08 66.1399 157.94 68.0599 157.94 68.0599C148.7 69.1799 140.29 74.5199 136.08 82.8199C129.61 95.5899 135.12 109.03 135.12 109.03C149.95 103.66 159.25 87.2299 163.18 78.7899C164.93 87.2699 170.27 98.7699 185.57 106.9C185.57 106.9 189.92 83.8999 173.63 70.6499V70.6599Z" fill="#8B9ACE"/>
<path d="M171.46 191.32C171.46 191.32 165.21 184.58 167.63 178.14C170.05 171.7 176.58 176.71 175.99 180.28C175.99 180.28 179.37 176.72 182.08 177.9C184.79 179.08 186.19 183.24 183.59 185.74C180.99 188.23 175.97 190.49 171.47 191.32H171.46Z" fill="#8B9ACE"/>
<path d="M185.11 108.36C185.11 108.36 190.49 108.5 192 112.27L185.11 108.74" fill="#989691"/>
<path d="M192 125.62C192 125.62 182.19 120.21 181.57 112.72C180.95 105.22 191.62 107.06 197.85 120.83L192 125.63V125.62Z" fill="white"/>
<path d="M181.56 112.71C181.56 112.71 180.92 119.16 191.99 125.61L194.73 124.08C194.73 124.08 186.98 124.66 181.55 112.7L181.56 112.71Z" fill="#989691"/>
<path d="M192 125.62C192 125.62 200.71 149.5 197.85 156.1C194.99 162.7 184.18 164.29 184.18 164.29L197.68 184.57C197.68 184.57 213.21 181.86 220.13 166.78C227.05 151.7 197.85 120.82 197.85 120.82C197.85 120.82 192.78 122.16 192 125.62Z" fill="#D3EAE9"/>
<path d="M152.89 113.72C158.49 113.72 163.03 109.18 163.03 103.58C163.03 97.9798 158.49 93.4399 152.89 93.4399C147.29 93.4399 142.75 97.9798 142.75 103.58C142.75 109.18 147.29 113.72 152.89 113.72Z" fill="#989691"/>
<path d="M147.84 113.72C153.44 113.72 157.98 109.18 157.98 103.58C157.98 97.9798 153.44 93.4399 147.84 93.4399C142.24 93.4399 137.7 97.9798 137.7 103.58C137.7 109.18 142.24 113.72 147.84 113.72Z" fill="white" stroke="#989691" stroke-width="2" stroke-miterlimit="10"/>
<path d="M175.43 113.72C181.03 113.72 185.57 109.18 185.57 103.58C185.57 97.9798 181.03 93.4399 175.43 93.4399C169.83 93.4399 165.29 97.9798 165.29 103.58C165.29 109.18 169.83 113.72 175.43 113.72Z" fill="#989691"/>
<path d="M170.92 113.72C176.52 113.72 181.06 109.18 181.06 103.58C181.06 97.9798 176.52 93.4399 170.92 93.4399C165.32 93.4399 160.78 97.9798 160.78 103.58C160.78 109.18 165.32 113.72 170.92 113.72Z" fill="white" stroke="#989691" stroke-width="2" stroke-miterlimit="10"/>
<path d="M147.84 111.08C151.982 111.08 155.34 107.722 155.34 103.58C155.34 99.4377 151.982 96.0798 147.84 96.0798C143.698 96.0798 140.34 99.4377 140.34 103.58C140.34 107.722 143.698 111.08 147.84 111.08Z" fill="#D3EAE9"/>
<path d="M170.92 111.08C175.062 111.08 178.42 107.722 178.42 103.58C178.42 99.4377 175.062 96.0798 170.92 96.0798C166.778 96.0798 163.42 99.4377 163.42 103.58C163.42 107.722 166.778 111.08 170.92 111.08Z" fill="#D3EAE9"/>
<path d="M146.52 105.47C147.249 105.47 147.84 104.691 147.84 103.73C147.84 102.769 147.249 101.99 146.52 101.99C145.791 101.99 145.2 102.769 145.2 103.73C145.2 104.691 145.791 105.47 146.52 105.47Z" fill="#989691"/>
<path d="M168.94 105.32C169.652 105.32 170.23 104.541 170.23 103.58C170.23 102.619 169.652 101.84 168.94 101.84C168.228 101.84 167.65 102.619 167.65 103.58C167.65 104.541 168.228 105.32 168.94 105.32Z" fill="#989691"/>
<path d="M103.35 109.32C103.35 109.32 97.45 99.9099 96.04 97.0899C94.64 94.2699 88.17 94.3999 88.17 94.3999L90.7 85.9599L88.17 76.1699L73 61.6399L75.25 81.0999L70.19 89.2099L79.18 100.9L61.76 114.1L105.31 113.68L103.34 109.32H103.35Z" fill="#989691" stroke="#989691" stroke-width="2" stroke-miterlimit="10"/>
<path d="M73 61.6399L54.77 90.2499V94.3999L41.26 114.09H61.76L79.18 100.9L70.19 89.2099L75.25 81.0999L73 61.6399Z" fill="white" stroke="#989691" stroke-miterlimit="10"/>
<path d="M104.25 119.81C104.25 119.81 98.35 129.22 96.94 132.04C95.54 134.86 89.07 134.73 89.07 134.73L91.6 143.17L89.07 152.96L73.9 167.49L76.15 148.03L71.09 139.92L80.08 128.23L62.66 115.03L106.27 114.17L104.25 119.8V119.81Z" fill="#D3EAE9"/>
<path d="M73.91 167.49L55.68 138.88V134.73L42.16 115.04H62.67L80.09 128.24L71.1 139.93L76.16 148.03L73.91 167.49Z" fill="#8B9ACE"/>
<path d="M29 115.04L114.2 114.1" stroke="#989691" stroke-miterlimit="10"/>
<path d="M100.19 130.48C102.769 130.48 104.86 129.571 104.86 128.45C104.86 127.329 102.769 126.42 100.19 126.42C97.6109 126.42 95.52 127.329 95.52 128.45C95.52 129.571 97.6109 130.48 100.19 130.48Z" fill="#989691"/>
<path d="M104.08 127.85L106.63 127.15V129.76L104 129.19L104.08 127.85Z" fill="#989691"/>
<path d="M114.33 123.85C116.373 123.85 118.03 123.129 118.03 122.24C118.03 121.351 116.373 120.63 114.33 120.63C112.287 120.63 110.63 121.351 110.63 122.24C110.63 123.129 112.287 123.85 114.33 123.85Z" fill="#989691"/>
<path d="M117.41 121.76L119.43 121.2V123.27L117.35 122.82L117.41 121.76Z" fill="#989691"/>
</g>
<defs>
<clipPath id="clip0_25_37017">
<rect width="192.18" height="132.32" fill="white" transform="translate(29 59)"/>
</clipPath>
</defs>
</svg>
