<svg width="250" height="250" viewBox="0 0 250 250" fill="none" xmlns="http://www.w3.org/2000/svg">
<path d="M143.94 57H116.93C115.29 57 113.96 58.3297 113.96 59.97V67.16C113.96 68.8003 115.29 70.13 116.93 70.13H143.94C145.58 70.13 146.91 68.8003 146.91 67.16V59.97C146.91 58.3297 145.58 57 143.94 57Z" fill="white" stroke="#989691" stroke-width="2" stroke-miterlimit="10"/>
<path d="M113.96 61.4099L109 63.5699L113.96 65.3999V61.4099Z" fill="#989691"/>
<path d="M120.35 65.2801C121.294 65.2801 122.06 64.5145 122.06 63.5701C122.06 62.6257 121.294 61.8601 120.35 61.8601C119.406 61.8601 118.64 62.6257 118.64 63.5701C118.64 64.5145 119.406 65.2801 120.35 65.2801Z" fill="#989691"/>
<path d="M130.43 65.2801C131.374 65.2801 132.14 64.5145 132.14 63.5701C132.14 62.6257 131.374 61.8601 130.43 61.8601C129.486 61.8601 128.72 62.6257 128.72 63.5701C128.72 64.5145 129.486 65.2801 130.43 65.2801Z" fill="#989691"/>
<path d="M141.14 65.2801C142.084 65.2801 142.85 64.5145 142.85 63.5701C142.85 62.6257 142.084 61.8601 141.14 61.8601C140.196 61.8601 139.43 62.6257 139.43 63.5701C139.43 64.5145 140.196 65.2801 141.14 65.2801Z" fill="#989691"/>
<path d="M70.61 57.0255L57.5198 56.3058C54.4482 56.1369 51.8213 58.49 51.6524 61.5616L50.3058 86.0546C50.1369 89.1262 52.49 91.7531 55.5616 91.922L68.6518 92.6417C71.7234 92.8106 74.3503 90.4574 74.5192 87.3859L75.8658 62.8929C76.0347 59.8213 73.6816 57.1944 70.61 57.0255Z" fill="#989691"/>
<path d="M81.3915 65.9751L68.484 68.2702C65.4553 68.8088 63.4366 71.7006 63.9751 74.7293L68.2695 98.8805C68.8081 101.909 71.6999 103.928 74.7286 103.389L87.6362 101.094C90.6649 100.556 92.6836 97.6638 92.145 94.6351L87.8506 70.4839C87.3121 67.4552 84.4202 65.4366 81.3915 65.9751Z" fill="white" stroke="#989691" stroke-width="2" stroke-miterlimit="10"/>
<path d="M107.609 79.4315L94.8731 76.3214C91.8847 75.5916 88.8705 77.4226 88.1407 80.411L82.3214 104.241C81.5916 107.229 83.4226 110.243 86.411 110.973L99.1467 114.083C102.135 114.813 105.149 112.982 105.879 109.994L111.698 86.1639C112.428 83.1755 110.597 80.1613 107.609 79.4315Z" fill="#D3EAE9" stroke="#989691" stroke-width="2" stroke-miterlimit="10"/>
<path d="M170.827 98H183.937C186.461 98 188.507 100.046 188.507 102.57V127.1C188.507 129.624 186.461 131.67 183.937 131.67H170.827C168.304 131.67 166.257 129.624 166.257 127.1V102.57C166.257 100.046 168.304 98 170.827 98Z" fill="#8B9ACE" stroke="#989691" stroke-width="2"/>
<path d="M58.79 135.43L61.29 149.03C61.29 149.03 48.7 192.96 50.04 196.71C51.38 200.46 73.61 202.42 84.32 202.78C95.03 203.14 114.81 201 117.64 199.66C120.47 198.32 105.51 149.04 105.51 149.04L107.86 135.44" fill="white"/>
<path d="M58.79 135.43L61.29 149.03C61.29 149.03 48.7 192.96 50.04 196.71C51.38 200.46 73.61 202.42 84.32 202.78C95.03 203.14 114.81 201 117.64 199.66C120.47 198.32 105.51 149.04 105.51 149.04L107.86 135.44" stroke="#989691" stroke-width="2" stroke-miterlimit="10"/>
<path d="M60.69 175.55L56.59 190.76C56.59 190.76 69.46 195.73 85.26 195.15C101.06 194.56 105.33 192.52 107.87 191.64C110.41 190.76 105.52 173.05 105.52 173.05C105.52 173.05 103.56 168.9 96.61 169.12C89.66 169.34 88.81 171.2 81.18 170.86C73.55 170.52 73.03 170.86 70.91 172.05C68.79 173.24 64.22 171.2 61.51 170.69L60.68 175.54L60.69 175.55Z" fill="#D3EAE9"/>
<path d="M166.491 159.409C166.491 159.409 164.061 146.532 161.11 139.426C158.159 132.32 165.938 132.882 167.782 139.795C169.625 146.708 170.699 139.842 172.433 133.37C174.167 126.898 174.943 121.723 178.4 122.576C181.857 123.43 177.495 137.428 177.495 137.428C177.495 137.428 178.155 131.528 181.671 132.47C185.187 133.412 182.22 140.775 182.008 141.567C181.796 142.359 182.88 134.875 186.416 135.74C189.953 136.605 187.02 144.96 187.02 144.96C187.02 144.96 189.055 138.528 191.315 139.288C193.575 140.049 192.682 143.962 192.037 146.946C191.393 149.931 190.179 154.151 188.83 156.326C187.482 158.501 184.363 163.805 184.117 164.142C183.871 164.48 166.479 159.416 166.479 159.416L166.491 159.409Z" fill="white" stroke="#989691" stroke-width="2" stroke-miterlimit="10"/>
<path d="M195.567 123.51L196.137 117.83" stroke="#989691" stroke-width="2" stroke-miterlimit="10"/>
<path d="M199.987 128.07L203.927 124.36" stroke="#989691" stroke-width="2" stroke-miterlimit="10"/>
<path d="M202.767 133.04L208.687 131.07" stroke="#989691" stroke-width="2" stroke-miterlimit="10"/>
<path d="M113.97 178.78H193.15" stroke="#989691" stroke-width="2" stroke-miterlimit="10"/>
<path d="M116.48 189.75H193.15" stroke="#989691" stroke-width="2" stroke-miterlimit="10"/>
<path d="M143.28 193.93C145.589 193.93 147.46 192.059 147.46 189.75C147.46 187.442 145.589 185.57 143.28 185.57C140.971 185.57 139.1 187.442 139.1 189.75C139.1 192.059 140.971 193.93 143.28 193.93Z" fill="#8B9ACE" stroke="#989691" stroke-width="2" stroke-miterlimit="10"/>
<path d="M83.33 141.97C96.883 141.97 107.87 139.042 107.87 135.43C107.87 131.818 96.883 128.89 83.33 128.89C69.7769 128.89 58.79 131.818 58.79 135.43C58.79 139.042 69.7769 141.97 83.33 141.97Z" fill="#989691" stroke="#989691" stroke-miterlimit="10"/>
<path d="M162.67 182.5L167 175L171.33 182.5H162.67Z" fill="#D3EAE9" stroke="#989691" stroke-width="2"/>
</svg>
