<svg width="250" height="250" viewBox="0 0 250 250" fill="none" xmlns="http://www.w3.org/2000/svg">
<path d="M175.44 79.55L178.92 77.72L178.26 81.59L181.07 84.33L177.18 84.9L175.44 88.42L173.7 84.9L169.81 84.33L172.63 81.59L171.96 77.72L175.44 79.55Z" fill="#8B9ACE"/>
<path d="M42.63 99.8801L46.11 98.05L45.44 101.93L48.26 104.67L44.37 105.23L42.63 108.76L40.89 105.23L37 104.67L39.82 101.93L39.15 98.05L42.63 99.8801Z" fill="white" stroke="#989691" stroke-miterlimit="10"/>
<path d="M56.27 120.02V153.24L85.05 169.85L113.82 153.24V120.02L85.05 103.4L56.27 120.02Z" fill="white" stroke="#989691" stroke-width="2" stroke-miterlimit="10"/>
<path d="M56.27 120.02L85.05 135.28V168.96" fill="white"/>
<path d="M56.27 120.02L85.05 135.28V168.96" stroke="#989691" stroke-width="2" stroke-miterlimit="10"/>
<path d="M85.05 135.28L113.82 120.02V153.24L85.05 149.6V135.28Z" fill="#989691"/>
<path d="M102.6 104.31V137.53L131.38 154.14L160.15 137.53V104.31L131.38 87.6899L102.6 104.31Z" fill="white" stroke="#989691" stroke-width="2" stroke-miterlimit="10"/>
<path d="M102.6 104.31L131.38 119.57V153.25" fill="white"/>
<path d="M102.6 104.31L131.38 119.57V153.25" stroke="#989691" stroke-width="2" stroke-miterlimit="10"/>
<path d="M160.15 104.31L131.38 119.57" stroke="#989691" stroke-width="2" stroke-miterlimit="10"/>
<path d="M73.83 153.25V186.47L102.6 203.08L131.38 186.47V153.25L102.6 136.64L73.83 153.25Z" fill="white" stroke="#989691" stroke-width="2" stroke-miterlimit="10"/>
<path d="M102.6 136.64L73.83 153.25L102.6 168.08L131.38 153.25L102.6 136.64Z" fill="#D3EAE9" stroke="#989691" stroke-width="2" stroke-miterlimit="10"/>
<path d="M102.6 168.08V203.08L131.38 186.47V153.25L102.6 168.08Z" fill="#8B9ACE" stroke="#989691" stroke-width="2" stroke-miterlimit="10"/>
<path d="M145.76 187L173.6 156.78L213.48 171.89L145.76 187Z" fill="white" stroke="#989691" stroke-width="2" stroke-miterlimit="10"/>
<path d="M158.41 180.66L159.24 184" stroke="#989691" stroke-miterlimit="10"/>
<path d="M164.7 179L165.53 182.33" stroke="#989691" stroke-miterlimit="10"/>
<path d="M170.23 177.81L171.07 181.14" stroke="#989691" stroke-miterlimit="10"/>
<path d="M175.97 176.15L176.8 179.48" stroke="#989691" stroke-miterlimit="10"/>
<path d="M181.54 175.09L182.37 178.42" stroke="#989691" stroke-miterlimit="10"/>
<path d="M186.79 173.95L187.62 177.29" stroke="#989691" stroke-miterlimit="10"/>
<path d="M192.18 172.81L193.01 176.15" stroke="#989691" stroke-miterlimit="10"/>
<path d="M197.19 171.89L198.03 175.23" stroke="#989691" stroke-miterlimit="10"/>
<path d="M131.07 108.76C137.94 108.76 143.51 106.503 143.51 103.72C143.51 100.936 137.94 98.6799 131.07 98.6799C124.2 98.6799 118.63 100.936 118.63 103.72C118.63 106.503 124.2 108.76 131.07 108.76Z" fill="#989691"/>
<path d="M124.37 104.31C124.37 104.31 123.77 79.1201 92.82 68.4001C92.82 68.4001 127.69 63.5701 129.2 103.73L124.37 104.32V104.31Z" fill="#D3EAE9" stroke="#989691" stroke-width="2" stroke-miterlimit="10"/>
<path d="M126.58 103.4L133.32 103.72C133.32 103.72 136.81 72.99 134.88 62.04C132.95 51.09 127.3 47 127.3 47C127.3 47 128.87 56.63 128.33 62.88C127.79 69.13 127.07 75.03 128.33 81.05C129.59 87.07 128.8 102.5 126.58 103.4Z" fill="#D3EAE9" stroke="#989691" stroke-width="2" stroke-miterlimit="10"/>
<path d="M131.07 102.76C131.07 102.76 133.08 90.5699 139.65 81.9999C146.22 73.4299 150.79 72.95 150.79 72.95C150.79 72.95 142.79 85.52 141.36 90.09C139.93 94.66 132.98 102.75 132.98 102.75H131.07V102.76Z" fill="#D3EAE9" stroke="#989691" stroke-width="2" stroke-miterlimit="10"/>
<path d="M77.4019 168.27V170.561C77.4019 170.799 77.3951 171.027 77.3816 171.246C77.3714 171.467 77.3596 171.636 77.3461 171.753L77.412 171.791C77.5304 171.633 77.6759 171.531 77.8484 171.486C78.0209 171.438 78.2138 171.438 78.4269 171.486C78.6434 171.537 78.8734 171.633 79.117 171.773C79.5466 172.021 79.912 172.316 80.2131 172.658C80.5141 172.996 80.7442 173.385 80.9032 173.824C81.0656 174.266 81.1468 174.764 81.1468 175.318V179.549L79.9543 178.86V174.888C79.9543 174.384 79.8646 173.955 79.6853 173.602C79.506 173.244 79.2286 172.957 78.8531 172.74C78.4912 172.531 78.2036 172.453 77.9905 172.506C77.7808 172.557 77.6302 172.726 77.5389 173.013C77.4475 173.296 77.4019 173.68 77.4019 174.164V177.387L76.2094 176.698V167.581L77.4019 168.27Z" fill="#989691"/>
<path d="M84.9069 180.724C85.0625 180.813 85.2164 180.887 85.3686 180.943C85.5209 180.996 85.6596 181.035 85.7847 181.061V182.104C85.6528 182.094 85.482 182.052 85.2722 181.978C85.0625 181.903 84.8443 181.801 84.6176 181.67C84.2996 181.486 84.0138 181.261 83.7601 180.993C83.5063 180.722 83.3051 180.393 83.1562 180.006C83.0074 179.619 82.9329 179.16 82.9329 178.629V175.143L82.1667 174.7V174.085L82.9887 174.073L83.3795 172.91L84.1305 173.344V174.785L85.7391 175.714V176.763L84.1305 175.834V179.303C84.1305 179.631 84.2015 179.916 84.3436 180.158C84.4857 180.4 84.6734 180.589 84.9069 180.724Z" fill="#989691"/>
<path d="M93.2745 179.941C93.9037 180.305 94.3773 180.766 94.6953 181.324C95.0167 181.885 95.1774 182.579 95.1774 183.407V187.649L93.9849 186.961V182.965C93.9849 182.473 93.902 182.054 93.7363 181.708C93.5705 181.362 93.3185 181.092 92.9802 180.896C92.5066 180.623 92.1649 180.602 91.9552 180.832C91.7488 181.061 91.6456 181.507 91.6456 182.171V185.61L90.4531 184.922V180.926C90.4531 180.598 90.4159 180.303 90.3415 180.041C90.2705 179.777 90.1605 179.548 90.0117 179.353C89.8628 179.153 89.6751 178.988 89.4484 178.857C89.1203 178.668 88.8581 178.603 88.6619 178.661C88.4691 178.722 88.3304 178.896 88.2458 179.183C88.1612 179.466 88.1189 179.85 88.1189 180.334V183.574L86.9265 182.886V176.399L87.8551 176.936L88.0225 177.905L88.0885 177.943C88.2035 177.783 88.3456 177.68 88.5147 177.633C88.6873 177.584 88.8784 177.585 89.0881 177.636C89.2979 177.683 89.5161 177.771 89.7427 177.902C90.1622 178.145 90.5157 178.435 90.8033 178.772C91.0908 179.106 91.3056 179.488 91.4477 179.918L91.5391 179.971C91.715 179.721 91.9602 179.603 92.2748 179.616C92.5895 179.63 92.9227 179.738 93.2745 179.941Z" fill="#989691"/>
<path d="M98.0393 189.302L96.8418 188.61V179.493L98.0393 180.185V189.302Z" fill="#989691"/>
<path d="M64.6647 143.501C64.1336 143.194 63.6735 142.81 63.2845 142.347C62.8955 141.884 62.5961 141.346 62.3864 140.732C62.1766 140.119 62.0717 139.434 62.0717 138.676C62.0717 137.887 62.1868 137.309 62.4168 136.941C62.6468 136.574 62.9648 136.389 63.3708 136.385C63.7801 136.383 64.2486 136.534 64.7764 136.839C65.1113 137.032 65.4141 137.246 65.6847 137.48C65.9587 137.713 66.1904 137.938 66.3799 138.157L66.0247 139.054C65.8183 138.837 65.6069 138.633 65.3904 138.441C65.1739 138.25 64.9658 138.097 64.7662 137.981C64.4381 137.792 64.1641 137.718 63.9442 137.759C63.7277 137.802 63.5653 137.958 63.457 138.228C63.3522 138.499 63.2997 138.881 63.2997 139.373C63.2997 139.85 63.3539 140.283 63.4621 140.674C63.5704 141.061 63.7311 141.399 63.9442 141.69C64.1573 141.978 64.4195 142.211 64.7307 142.391C65.0386 142.568 65.3143 142.685 65.5578 142.739C65.8014 142.794 66.0314 142.815 66.2479 142.804V143.999C66.0348 144.017 65.8065 143.988 65.5629 143.914C65.3193 143.844 65.0199 143.706 64.6647 143.501Z" fill="#989691"/>
<path d="M71.3426 145.388C71.3426 145.813 71.253 146.121 71.0737 146.311C70.8944 146.5 70.6322 146.571 70.2871 146.524C69.9455 146.476 69.526 146.308 69.0287 146.021C68.6363 145.794 68.298 145.565 68.0138 145.335C67.733 145.11 67.4675 144.859 67.2171 144.582V143.393C67.4844 143.691 67.7838 143.989 68.1153 144.286C68.4502 144.585 68.7665 144.82 69.0642 144.992C69.4566 145.219 69.7391 145.312 69.9116 145.271C70.0842 145.226 70.1704 145.084 70.1704 144.846C70.1704 144.705 70.1349 144.56 70.0639 144.409C69.9962 144.257 69.8677 144.067 69.6782 143.841C69.4922 143.612 69.2181 143.31 68.8562 142.933C68.501 142.563 68.2016 142.227 67.958 141.922C67.7144 141.617 67.5301 141.313 67.4049 141.011C67.2797 140.704 67.2171 140.369 67.2171 140.006C67.2171 139.432 67.4134 139.109 67.8058 139.039C68.2016 138.967 68.7242 139.118 69.3738 139.493C69.7188 139.692 70.0436 139.921 70.348 140.179C70.6559 140.435 70.957 140.724 71.2513 141.046L70.8758 141.866C70.622 141.591 70.3666 141.338 70.1095 141.107C69.8558 140.875 69.597 140.683 69.3332 140.53C69.0253 140.353 68.7902 140.272 68.6278 140.287C68.4688 140.305 68.3893 140.415 68.3893 140.618C68.3893 140.771 68.4282 140.922 68.506 141.072C68.5838 141.223 68.7175 141.405 68.9069 141.62C69.0997 141.837 69.367 142.122 69.7087 142.476C70.0436 142.817 70.3328 143.141 70.5764 143.445C70.8233 143.748 71.0128 144.055 71.1447 144.365C71.2766 144.676 71.3426 145.017 71.3426 145.388Z" fill="#989691"/>
<path d="M76.4068 148.312C76.4068 148.737 76.3172 149.045 76.1379 149.234C75.9586 149.424 75.6964 149.495 75.3514 149.448C75.0097 149.399 74.5902 149.231 74.0929 148.944C73.7005 148.718 73.3622 148.489 73.078 148.259C72.7973 148.034 72.5317 147.783 72.2814 147.506V146.316C72.5486 146.615 72.848 146.913 73.1795 147.21C73.5144 147.509 73.8307 147.744 74.1284 147.916C74.5209 148.143 74.8033 148.235 74.9759 148.194C75.1484 148.149 75.2346 148.008 75.2346 147.77C75.2346 147.629 75.1991 147.483 75.1281 147.333C75.0604 147.181 74.9319 146.991 74.7424 146.765C74.5564 146.536 74.2824 146.233 73.9204 145.856C73.5652 145.487 73.2658 145.15 73.0222 144.846C72.7787 144.541 72.5943 144.237 72.4691 143.935C72.344 143.628 72.2814 143.293 72.2814 142.93C72.2814 142.355 72.4776 142.033 72.87 141.963C73.2658 141.891 73.7885 142.042 74.438 142.417C74.783 142.616 75.1078 142.845 75.4123 143.103C75.7201 143.358 76.0212 143.647 76.3155 143.97L75.94 144.79C75.6863 144.515 75.4309 144.262 75.1738 144.031C74.92 143.799 74.6612 143.606 74.3974 143.454C74.0895 143.276 73.8544 143.195 73.692 143.211C73.533 143.229 73.4535 143.339 73.4535 143.542C73.4535 143.694 73.4925 143.846 73.5703 143.996C73.6481 144.147 73.7817 144.329 73.9711 144.544C74.164 144.761 74.4312 145.046 74.7729 145.399C75.1078 145.741 75.397 146.064 75.6406 146.369C75.8876 146.672 76.077 146.979 76.2089 147.289C76.3409 147.6 76.4068 147.94 76.4068 148.312Z" fill="#989691"/>
<path d="M113.636 132.25C113.46 132.148 113.293 132.036 113.134 131.913C112.975 131.794 112.841 131.684 112.733 131.582V130.48C112.848 130.586 112.959 130.68 113.068 130.762C113.176 130.844 113.299 130.925 113.438 131.005C113.658 131.132 113.839 131.166 113.981 131.107C114.127 131.051 114.199 130.825 114.199 130.431V123.206L115.392 123.894V131.242C115.392 131.637 115.331 131.951 115.209 132.185C115.091 132.422 114.901 132.551 114.641 132.572C114.384 132.596 114.049 132.488 113.636 132.25ZM114.128 121.436C114.128 121.159 114.192 121.001 114.321 120.962C114.453 120.925 114.614 120.961 114.803 121.07C114.986 121.176 115.143 121.323 115.275 121.513C115.41 121.704 115.478 121.938 115.478 122.216C115.478 122.489 115.41 122.645 115.275 122.685C115.143 122.722 114.986 122.687 114.803 122.582C114.614 122.473 114.453 122.323 114.321 122.134C114.192 121.942 114.128 121.71 114.128 121.436Z" fill="#989691"/>
<path d="M120.877 131.696C120.877 132.122 120.787 132.43 120.608 132.619C120.429 132.809 120.167 132.88 119.822 132.833C119.48 132.784 119.06 132.616 118.563 132.329C118.171 132.102 117.832 131.874 117.548 131.643C117.268 131.419 117.002 131.168 116.752 130.891V129.701C117.019 130 117.318 130.298 117.65 130.595C117.985 130.893 118.301 131.129 118.599 131.301C118.991 131.527 119.274 131.62 119.446 131.579C119.619 131.534 119.705 131.393 119.705 131.154C119.705 131.014 119.669 130.868 119.598 130.718C119.531 130.565 119.402 130.376 119.213 130.149C119.027 129.921 118.753 129.618 118.391 129.241C118.035 128.872 117.736 128.535 117.493 128.23C117.249 127.926 117.065 127.622 116.939 127.319C116.814 127.013 116.752 126.678 116.752 126.314C116.752 125.74 116.948 125.418 117.34 125.348C117.736 125.275 118.259 125.427 118.908 125.802C119.253 126.001 119.578 126.229 119.883 126.487C120.19 126.743 120.491 127.032 120.786 127.354L120.41 128.175C120.157 127.899 119.901 127.646 119.644 127.416C119.39 127.184 119.132 126.991 118.868 126.839C118.56 126.661 118.325 126.58 118.162 126.596C118.003 126.613 117.924 126.724 117.924 126.927C117.924 127.079 117.963 127.23 118.041 127.381C118.118 127.531 118.252 127.714 118.441 127.929C118.634 128.145 118.901 128.431 119.243 128.784C119.578 129.126 119.867 129.449 120.111 129.754C120.358 130.057 120.547 130.363 120.679 130.674C120.811 130.984 120.877 131.325 120.877 131.696Z" fill="#989691"/>
</svg>
