<svg width="120" height="120" viewBox="0 0 120 120" fill="none" xmlns="http://www.w3.org/2000/svg">
<rect width="120" height="120" rx="60" fill="#4758DC"/>
<path d="M66.5933 39.9964C66.5933 41.7824 66.3029 43.5 65.7671 45.104C65.5905 45.9158 65.4025 46.6554 65.2276 47.3434C64.5138 50.1519 64.0185 52.1008 65.403 54.593C67.5345 58.4298 69.8998 58.9684 72.0502 59.1922C72.0826 59.1921 72.115 59.192 72.1474 59.192C82.0071 59.192 90 67.249 90 77.1879C90 81.7142 88.3423 85.8501 85.6055 89.0126C85.2183 82.1686 81.4925 77.2587 76.7986 73.9268C71.7602 70.3503 65.5614 68.5496 60.9807 68.0275C57.2833 67.6061 54.6847 65.2422 52.9827 62.181C51.2739 59.1073 50.5242 55.414 50.5242 52.5843C50.5242 51.4371 50.8246 50.448 51.2728 49.4641C51.4989 48.9678 51.7596 48.4791 52.0392 47.9673C52.0859 47.8818 52.1332 47.7956 52.181 47.7085C52.4152 47.2813 52.6599 46.8352 52.8905 46.3765C53.4506 45.2622 53.9573 44.0186 54.1528 42.5258C54.3489 41.0287 54.2261 39.3285 53.5936 37.2981C51.3859 30.2109 45.3452 28.0034 41.1663 27.2259C43.8247 25.2009 47.1354 24 50.7243 24C59.4885 24 66.5933 31.1618 66.5933 39.9964Z" fill="white"/>
<path d="M39.4604 28.6332C43.3997 29.1445 49.846 30.7941 52.0265 37.7941C52.5959 39.6218 52.6856 41.0783 52.5245 42.3091C52.3627 43.5441 51.9424 44.5996 51.4254 45.6281C51.2094 46.0577 50.9817 46.4731 50.7477 46.8997C50.6989 46.9888 50.6498 47.0783 50.6005 47.1686C50.3188 47.6842 50.0331 48.2179 49.7802 48.7731C49.2703 49.8924 48.8818 51.1228 48.8818 52.5843C48.8818 55.658 49.6857 59.6372 51.5499 62.9904C53.4211 66.3561 56.4152 69.1734 60.7962 69.6727C65.1719 70.1714 71.0906 71.9 75.8529 75.2805C80.5919 78.6445 84.1399 83.601 83.9918 90.6226L84.0249 90.6233C80.8694 93.4599 76.7081 95.1838 72.1474 95.1838C71.9109 95.1838 71.6754 95.1792 71.4411 95.17C59.7192 96.5007 43.7232 92.4773 34.6571 71.9889C24.822 49.7626 32.5774 34.8675 39.4604 28.6332Z" fill="white"/>
</svg>
