<svg width="250" height="250" viewBox="0 0 250 250" fill="none" xmlns="http://www.w3.org/2000/svg">
<g clip-path="url(#clip0_25_37016)">
<path d="M137.96 184.12C132.21 174.11 118.73 169.93 106.95 165.63C95.17 161.32 82.25 153.94 81.5 142.89C81.03 135.94 85.72 129.45 85.03 122.51C83.6 108.18 62.41 102.48 52.71 90.6101C45.73 82.0701 45.39 70.2901 50.4 61.1101C55.41 51.9301 65.14 45.2701 76 41.6201C98.4 34.0901 125.43 39.1201 145.07 52.3001C164.71 65.4801 152.33 92.8001 156.69 113.89C161.05 134.98 182.64 149.79 175.17 169.81C172.39 177.25 168.51 185.04 160.68 188.72C152.85 192.4 140.36 189.08 139.04 181.21" fill="#8B9ACE"/>
<path d="M168.83 191.66C167.31 179.84 175.28 176.7 180.12 170.5C184.96 164.3 188.96 154.55 183.99 142.18C180.86 134.4 174.91 127.75 171.91 119.95C165.72 103.86 180.51 94.73 180.42 80.38C180.35 70.06 172.46 51.61 156.71 48.82C144.75 46.7 147.62 38.1 135.38 30.46C120.25 21.01 107.18 32.15 102.05 49.15C96.92 66.15 99.59 90.37 107.36 114.33C115.13 138.29 127.69 161.98 141.92 183.33C147.21 191.26 153.32 199.46 159.75 202.61C166.18 205.76 171.92 200.57 168.84 191.67" fill="#8B9ACE"/>
<path d="M150.03 181.95C167.455 181.95 181.58 166.54 181.58 147.53C181.58 128.52 167.455 113.11 150.03 113.11C132.605 113.11 118.48 128.52 118.48 147.53C118.48 166.54 132.605 181.95 150.03 181.95Z" fill="#8B9ACE"/>
<path d="M164.82 175.36L137.3 180.03L137.05 213.65C137.05 213.65 138.63 222.36 152.86 222.6C166.29 222.83 167.19 213.25 167.19 213.25L164.83 175.36H164.82Z" fill="white"/>
<path d="M137.15 199.14C137.15 199.14 154.67 200.61 165.5 186.36L164.81 175.36L137.29 180.03L137.15 199.14Z" fill="#989691"/>
<path d="M183.87 159.98C183.87 162.65 180.62 166.44 176.88 165.35C174.31 164.6 171.03 162.65 171.03 159.98C171.03 157.31 174.78 154.62 177.45 154.62C181.77 154.62 183.87 157.31 183.87 159.98Z" fill="white"/>
<path d="M179.03 161.96C178.99 161.36 179.09 160.78 179.26 160.22C179.46 159.66 179.66 159.09 180.3 158.61C180.44 158.5 180.72 158.41 180.95 158.41C181.08 158.42 181.22 158.43 181.32 158.47C181.42 158.52 181.52 158.57 181.61 158.64C181.78 158.77 181.87 158.92 181.99 159.06C182.16 159.31 182.15 159.51 182.16 159.67C182.15 160.33 181.95 160.86 181.65 161.39C181.54 160.81 181.5 160.23 181.38 159.76C181.35 159.65 181.3 159.56 181.29 159.58C181.21 159.53 181.13 159.43 181.07 159.41C180.94 159.34 180.97 159.37 180.83 159.44C180.55 159.61 180.24 160.1 179.95 160.54C179.66 161 179.37 161.48 179.01 161.95L179.03 161.96Z" fill="#989691"/>
<path d="M119.97 159.98C119.97 162.65 123.22 166.44 126.96 165.35C129.53 164.6 132.81 162.65 132.81 159.98C132.81 157.31 129.06 154.62 126.39 154.62C122.07 154.62 119.97 157.31 119.97 159.98Z" fill="white"/>
<path d="M124.81 161.96C124.45 161.48 124.16 161 123.87 160.55C123.58 160.11 123.27 159.62 122.99 159.45C122.85 159.38 122.89 159.35 122.75 159.42C122.69 159.44 122.61 159.54 122.53 159.59C122.53 159.57 122.47 159.66 122.44 159.77C122.32 160.23 122.28 160.82 122.17 161.4C121.88 160.87 121.68 160.34 121.66 159.68C121.66 159.51 121.66 159.31 121.83 159.07C121.95 158.93 122.04 158.78 122.21 158.65C122.3 158.59 122.4 158.53 122.5 158.48C122.61 158.44 122.75 158.43 122.87 158.42C123.11 158.42 123.38 158.51 123.52 158.62C124.16 159.11 124.37 159.67 124.56 160.23C124.74 160.79 124.83 161.37 124.79 161.97L124.81 161.96Z" fill="#989691"/>
<path d="M177.43 153.02C177.91 171.69 169.07 189.54 153.71 189.94C138.36 190.33 127.27 174.39 126.79 155.72C126.31 137.04 136.63 122.71 151.98 122.32C167.33 121.93 176.95 134.36 177.43 153.03V153.02Z" fill="white"/>
<path d="M143.32 153.96C143.29 154.99 142.65 155.82 141.89 155.8C141.12 155.78 140.52 154.93 140.55 153.89C140.58 152.85 141.22 152.03 141.98 152.05C142.75 152.07 143.35 152.92 143.32 153.96Z" fill="#989691"/>
<path d="M163.29 153.96C163.26 154.99 162.62 155.82 161.86 155.8C161.09 155.78 160.49 154.93 160.52 153.89C160.55 152.85 161.19 152.03 161.95 152.05C162.72 152.07 163.32 152.92 163.29 153.96Z" fill="#989691"/>
<path d="M146.13 163.74C146.13 163.74 151.47 174.88 159.58 164.07" stroke="#989691" stroke-miterlimit="10"/>
<path d="M151.23 160.49L154.48 158.43C152.7 157.19 151.94 153.65 151.94 153.65" stroke="#989691" stroke-miterlimit="10"/>
<path d="M165.51 118.37C159.96 113.85 149.82 115.77 149.82 115.77C140.58 116.89 132.17 122.23 127.96 130.53C121.49 143.3 127 156.74 127 156.74C141.83 151.37 151.13 134.94 155.06 126.5C156.81 134.98 162.15 146.48 177.45 154.61C177.45 154.61 181.8 131.61 165.51 118.36V118.37Z" fill="#8B9ACE"/>
<path d="M123.21 57.05H115.74C115.232 57.05 114.82 57.4619 114.82 57.97V65.44C114.82 65.9482 115.232 66.3601 115.74 66.3601H123.21C123.718 66.3601 124.13 65.9482 124.13 65.44V57.97C124.13 57.4619 123.718 57.05 123.21 57.05Z" fill="white"/>
<path d="M60.09 115.5L63.99 113.45L63.24 117.78L66.39 120.86L62.04 121.49L60.09 125.43L58.14 121.49L53.79 120.86L56.94 117.78L56.2 113.45L60.09 115.5Z" fill="#D3EAE9"/>
<path d="M90.34 180.42L95.03 177.95L94.13 183.17L97.92 186.87L92.69 187.63L90.34 192.37L88 187.63L82.76 186.87L86.55 183.17L85.66 177.95L90.34 180.42Z" fill="#D3EAE9"/>
<path d="M77.72 71.26C77.72 71.26 90.63 69.51 95.6 83.12C100.57 96.73 114.06 113.9 137.15 103.05C160.24 92.2 149.83 80.78 169.88 74.84" stroke="white" stroke-miterlimit="10"/>
<path d="M100.57 96.73C104.834 96.73 108.29 93.2737 108.29 89.01C108.29 84.7464 104.834 81.29 100.57 81.29C96.3064 81.29 92.85 84.7464 92.85 89.01C92.85 93.2737 96.3064 96.73 100.57 96.73Z" fill="#D3EAE9" stroke="#989691" stroke-width="2" stroke-miterlimit="10"/>
<path d="M198.6 119.07C200.704 119.07 202.41 117.364 202.41 115.26C202.41 113.156 200.704 111.45 198.6 111.45C196.496 111.45 194.79 113.156 194.79 115.26C194.79 117.364 196.496 119.07 198.6 119.07Z" fill="#8B9ACE"/>
<path d="M60.09 164.24C62.1942 164.24 63.9 162.534 63.9 160.43C63.9 158.326 62.1942 156.62 60.09 156.62C57.9858 156.62 56.28 158.326 56.28 160.43C56.28 162.534 57.9858 164.24 60.09 164.24Z" fill="#8B9ACE"/>
<path d="M179.03 79.81C185.055 79.81 189.94 74.9254 189.94 68.9C189.94 62.8746 185.055 57.99 179.03 57.99C173.005 57.99 168.12 62.8746 168.12 68.9C168.12 74.9254 173.005 79.81 179.03 79.81Z" fill="#D3EAE9"/>
<path d="M151.157 98.6677L134.317 95.0698L131.678 107.421L148.518 111.019L151.157 98.6677Z" fill="white" stroke="#989691" stroke-width="2" stroke-miterlimit="10"/>
<path d="M66.39 60.05L85.5 64.93L69.73 77.76L66.39 60.05Z" fill="white" stroke="#989691" stroke-width="2" stroke-miterlimit="10"/>
<path d="M168.8 63.6101C168.8 63.6101 167.31 62.9801 165.53 62.7401C163.75 62.5001 163.34 63.47 164.56 64.93C165.78 66.39 170.96 71.09 174.69 73.68C178.42 76.27 182.79 79.11 184.41 79.67C186.03 80.23 186.11 78.94 185.22 77.48" stroke="#989691" stroke-width="2" stroke-miterlimit="10"/>
</g>
<defs>
<clipPath id="clip0_25_37016">
<rect width="155.41" height="195.61" fill="white" transform="translate(47 27)"/>
</clipPath>
</defs>
</svg>
