<svg width="120" height="120" viewBox="0 0 120 120" fill="none" xmlns="http://www.w3.org/2000/svg">
<rect width="120" height="120" rx="60" fill="#4758DC"/>
<path d="M60.2664 57.5938C60.2635 57.5925 60.262 57.5914 60.262 57.5911C60.2619 57.5909 60.2634 57.5916 60.2664 57.5938Z" fill="white"/>
<path d="M57.6636 64.5165C57.6635 64.517 57.6608 64.5156 57.6555 64.511C57.661 64.5137 57.6636 64.516 57.6636 64.5165Z" fill="white"/>
<path d="M47.6997 59.1C47.6998 59.1 47.6999 59.1 47.6997 59.1Z" fill="white"/>
<path fill-rule="evenodd" clip-rule="evenodd" d="M70.8 60.3C70.8 68.5843 64.0843 75.3 55.8 75.3C47.5157 75.3 40.8 68.5843 40.8 60.3C40.8 52.0157 47.5157 45.3 55.8 45.3C64.0843 45.3 70.8 52.0157 70.8 60.3ZM51.9612 67.2039C51.8047 67.3903 51.5198 67.5734 51.1545 67.482C50.9281 67.4255 50.7598 67.2908 50.643 67.1656C50.5245 67.0387 50.4275 66.888 50.3464 66.7374C50.1845 66.4369 50.0422 66.0531 49.9122 65.6416C49.7122 65.0082 49.5174 64.2281 49.3209 63.4411C49.262 63.2053 49.2029 62.9687 49.1435 62.7355C48.8801 61.7005 48.6089 60.7221 48.3018 60.0071C48.1475 59.6478 48.0003 59.3944 47.8674 59.2399C47.8029 59.165 47.7544 59.1282 47.7254 59.1115C47.7118 59.1037 47.7038 59.1011 47.7013 59.1004L47.6997 59.1C47.2345 59.1002 46.902 59.4616 46.5392 60.2506C46.4556 60.4324 46.3782 60.6189 46.2988 60.8101L46.2971 60.814C46.2202 60.9994 46.1398 61.1931 46.0566 61.3705C45.9734 61.5477 45.877 61.7315 45.762 61.8924C45.6492 62.0501 45.4907 62.2254 45.2683 62.3366L44.7317 61.2633L44.7284 61.265L44.7256 61.2666L44.7229 61.2681L44.7236 61.2675C44.7278 61.2639 44.7494 61.2453 44.7859 61.1943C44.8391 61.12 44.8994 61.0116 44.9702 60.8607C45.0403 60.7112 45.1106 60.5423 45.1905 60.35L45.1937 60.3422C45.2708 60.1566 45.3556 59.9522 45.4489 59.7493C45.7987 58.9885 46.4161 57.9 47.7 57.9C48.1715 57.9 48.5292 58.1691 48.7771 58.4574C49.0262 58.747 49.2306 59.1288 49.4044 59.5335C49.7536 60.3467 50.0449 61.4119 50.3065 62.4395C50.3698 62.6882 50.4313 62.9346 50.4917 63.1762L50.4919 63.1769L50.492 63.1776L50.4922 63.1782C50.6866 63.9567 50.8687 64.6854 51.0565 65.2802C51.1108 65.4521 51.1636 65.6062 51.2149 65.7418C51.2442 65.5646 51.2723 65.36 51.2994 65.1287C51.3754 64.4783 51.435 63.6979 51.4998 62.8477C51.5422 62.2925 51.5869 61.7074 51.6398 61.1095C51.7711 59.6283 51.9526 58.0878 52.2832 56.9083C52.4476 56.3219 52.6618 55.7756 52.9584 55.3642C53.2616 54.9436 53.7029 54.6 54.3 54.6C54.8411 54.6 55.2485 54.8909 55.5323 55.2592C55.806 55.6143 56.0004 56.0816 56.1492 56.5729C56.4481 57.5592 56.6217 58.8489 56.7706 60.0778C56.7918 60.2527 56.8125 60.4263 56.833 60.5981L56.8352 60.6164C56.9612 61.6742 57.0787 62.6602 57.2482 63.423C57.3479 63.8715 57.4547 64.1883 57.5627 64.3803C57.5989 64.4446 57.626 64.48 57.643 64.4986C57.9018 64.4808 58.1561 64.2944 58.3829 63.6384C58.6169 62.9616 58.7264 62.0215 58.8016 61.0057C58.8222 60.7288 58.8401 60.4446 58.858 60.1617C58.9032 59.4482 58.9479 58.7419 59.0315 58.1777C59.0897 57.7848 59.1749 57.3929 59.3246 57.0854C59.4739 56.7788 59.7735 56.4 60.3 56.4C60.7294 56.4 61.0452 56.6355 61.2539 56.8974C61.455 57.1499 61.5979 57.4732 61.7074 57.7966C61.9276 58.447 62.0749 59.2936 62.2047 60.0911C62.2223 60.1993 62.2396 60.3067 62.2568 60.4131L62.2569 60.4138C62.3702 61.1171 62.4758 61.772 62.6105 62.2916C62.6881 62.5912 62.7661 62.8063 62.8407 62.9431C62.8522 62.9642 62.8625 62.9814 62.8714 62.9953C62.9553 62.8744 63.0365 62.6485 63.1323 62.2848C63.1531 62.2057 63.1746 62.1197 63.1973 62.0295L63.1974 62.0289C63.2666 61.7531 63.3455 61.4385 63.4419 61.1648C63.5665 60.8109 63.7698 60.3657 64.1672 60.1008C64.3329 59.9903 64.5316 59.9508 64.6535 59.9312C64.8 59.9076 64.9669 59.8948 65.1371 59.8881C65.479 59.8747 65.889 59.8838 66.2876 59.9007C66.6885 59.9176 67.0915 59.943 67.4205 59.9637C67.7636 59.9854 67.9994 60 68.1 60V61.2C67.9568 61.2 67.6852 61.1829 67.3844 61.1639L67.345 61.1614C67.0145 61.1405 66.6236 61.116 66.2369 61.0996C65.8479 61.0832 65.4767 61.0757 65.1843 61.0872C65.0373 61.093 64.9237 61.1031 64.8442 61.1159C64.8367 61.1171 64.8299 61.1183 64.8238 61.1194L64.8148 61.1211L64.8038 61.1233C64.7484 61.1776 64.6657 61.3023 64.5738 61.5633C64.4974 61.78 64.4391 62.0126 64.3742 62.2712C64.3485 62.3733 64.3219 62.4794 64.2927 62.5902C64.2015 62.9368 64.0769 63.3666 63.852 63.687C63.7317 63.8583 63.5611 64.0309 63.3206 64.1336C63.0728 64.2395 62.8097 64.2459 62.5545 64.1821C62.157 64.0827 61.9224 63.7657 61.7871 63.5175C61.6425 63.2523 61.5353 62.926 61.4489 62.5928C61.2987 62.0136 61.183 61.2943 61.0712 60.5991C61.0542 60.4933 61.0372 60.388 61.0203 60.2839C60.8876 59.4689 60.7537 58.7218 60.5708 58.1815C60.4972 57.9644 60.4256 57.8114 60.3619 57.7112C60.3106 57.8539 60.2613 58.0648 60.2185 58.3536C60.1427 58.8651 60.1033 59.4892 60.0597 60.1778C60.0411 60.4727 60.0217 60.7795 59.9984 61.0943C59.9236 62.1035 59.8081 63.1884 59.5171 64.0304C59.2314 64.8568 58.6764 65.7 57.6 65.7C57.0488 65.7 56.708 65.3084 56.517 64.9689C56.3203 64.6195 56.1834 64.1629 56.0768 63.6833C55.893 62.8563 55.7672 61.7987 55.6423 60.7477L55.6422 60.7469C55.6213 60.5715 55.6005 60.3962 55.5794 60.2222C55.4283 58.9761 55.2644 57.7908 55.0008 56.9209C54.8684 56.484 54.7253 56.1779 54.5818 55.9916C54.4484 55.8185 54.3589 55.8 54.3 55.8C54.2221 55.8 54.1009 55.8314 53.9318 56.0659C53.7562 56.3095 53.5883 56.6984 53.4387 57.2323C53.1412 58.2935 52.9664 59.7342 52.8352 61.2154C52.7855 61.7758 52.7419 62.3458 52.6997 62.8972C52.6328 63.7715 52.5694 64.5994 52.4913 65.2681C52.4276 65.8124 52.3489 66.3066 52.2343 66.6657C52.1793 66.8382 52.0975 67.0417 51.9612 67.2039Z" fill="white"/>
<path fill-rule="evenodd" clip-rule="evenodd" d="M71.5812 15.4533C71.828 15.8847 71.6783 16.4346 71.2469 16.6814C65.8991 19.7405 61.8471 24.4676 58.9517 29.1765C56.3003 33.4884 54.6483 37.7371 53.8681 40.5675C54.4062 40.5229 54.9504 40.5002 55.5 40.5002C59.0324 40.5002 62.3454 41.4394 65.2029 43.0817C66.2688 40.1307 68.1462 36.0046 70.8229 31.977C73.8253 27.4595 77.8842 22.9894 83.0054 20.4913C83.4522 20.2733 83.991 20.4588 84.2089 20.9056C84.4268 21.3523 84.2413 21.8911 83.7946 22.109C79.0759 24.4109 75.2347 28.5908 72.3221 32.9733C69.6133 37.0491 67.7515 41.2338 66.7594 44.0773C71.7455 47.6095 75 53.4247 75 60.0002C75 68.3384 69.7666 75.4543 62.4052 78.2422C62.4524 80.7726 62.8263 84.7356 63.8164 88.9781C64.8823 93.545 66.6449 98.36 69.42 102.06C69.7182 102.458 69.6376 103.022 69.24 103.32C68.8424 103.618 68.2782 103.538 67.98 103.14C64.9951 99.1603 63.1577 94.0753 62.0636 89.3872C61.1118 85.3091 60.7093 81.474 60.6199 78.8211C58.9883 79.2639 57.2718 79.5002 55.5 79.5002C52.6985 79.5002 50.035 78.9094 47.6273 77.8457C47.4459 83.3504 48.4611 94.3797 53.8632 103.023C54.1266 103.445 53.9985 104 53.577 104.263C53.1555 104.527 52.6002 104.399 52.3368 103.977C46.3987 94.4762 45.5467 82.3632 45.8662 76.9581C39.9736 73.6033 36 67.2658 36 60.0002C36 50.4461 42.8709 42.4969 51.9409 40.8242C52.6728 37.844 54.4451 33.069 57.4183 28.2337C60.4129 23.3636 64.6609 18.375 70.3531 15.1189C70.7846 14.8721 71.3344 15.0218 71.5812 15.4533ZM73.2 60.0002C73.2 69.7756 65.2754 77.7002 55.5 77.7002C45.7246 77.7002 37.8 69.7756 37.8 60.0002C37.8 50.2247 45.7246 42.3002 55.5 42.3002C65.2754 42.3002 73.2 50.2247 73.2 60.0002Z" fill="white"/>
<path d="M63.6 36.3002C63.6 37.2943 62.7941 38.1002 61.8 38.1002C60.8059 38.1002 60 37.2943 60 36.3002C60 35.306 60.8059 34.5002 61.8 34.5002C62.7941 34.5002 63.6 35.306 63.6 36.3002Z" fill="white"/>
<path d="M54.6 87.3002C55.5941 87.3002 56.4 86.4943 56.4 85.5002C56.4 84.506 55.5941 83.7002 54.6 83.7002C53.6059 83.7002 52.8 84.506 52.8 85.5002C52.8 86.4943 53.6059 87.3002 54.6 87.3002Z" fill="white"/>
<path d="M57.6 92.1C57.6 93.0941 56.7941 93.9 55.8 93.9C54.8059 93.9 54 93.0941 54 92.1C54 91.1059 54.8059 90.3 55.8 90.3C56.7941 90.3 57.6 91.1059 57.6 92.1Z" fill="white"/>
<path d="M58.2 100.5C59.1941 100.5 60 99.6941 60 98.7C60 97.7059 59.1941 96.9 58.2 96.9C57.2059 96.9 56.4 97.7059 56.4 98.7C56.4 99.6941 57.2059 100.5 58.2 100.5Z" fill="white"/>
<path d="M66.6 30.3002C66.6 31.2943 65.7941 32.1002 64.8 32.1002C63.8059 32.1002 63 31.2943 63 30.3002C63 29.306 63.8059 28.5002 64.8 28.5002C65.7941 28.5002 66.6 29.306 66.6 30.3002Z" fill="white"/>
<path d="M69 27.3002C69.9941 27.3002 70.8 26.4943 70.8 25.5002C70.8 24.506 69.9941 23.7002 69 23.7002C68.0059 23.7002 67.2 24.506 67.2 25.5002C67.2 26.4943 68.0059 27.3002 69 27.3002Z" fill="white"/>
</svg>
