<svg width="250" height="250" viewBox="0 0 250 250" fill="none" xmlns="http://www.w3.org/2000/svg">
<path d="M194.93 114.45L222.13 103.45L128.23 60.9399L101.93 66.1199L194.93 114.45Z" fill="white" stroke="#989691" stroke-width="2" stroke-miterlimit="10"/>
<path d="M184.25 95.1L193.22 112.62L101.93 66.12L103.51 53L184.25 95.1Z" fill="#989691" stroke="#989691" stroke-width="2" stroke-miterlimit="10"/>
<path d="M85.82 76.6699L52.85 88.3399L137.68 143.62L167.39 125.17L85.82 76.6699Z" fill="white" stroke="#989691" stroke-width="2" stroke-miterlimit="10"/>
<path d="M85.8201 76.67L103.51 53L184.25 95.1L167.39 125.17L85.8201 76.67Z" fill="white" stroke="#989691" stroke-width="2" stroke-miterlimit="10"/>
<path d="M111.62 121.83C111.62 121.83 119.53 124.06 129.89 118.68C140.25 113.3 119.87 96.24 123.86 86.21C127.85 76.18 142.34 82.73 147.56 82.56C152.78 82.39 158.53 81.7 158.53 81.7" stroke="#8B9ACE" stroke-width="2" stroke-miterlimit="10"/>
<path d="M129.89 121.24C131.309 121.24 132.46 120.089 132.46 118.67C132.46 117.251 131.309 116.1 129.89 116.1C128.471 116.1 127.32 117.251 127.32 118.67C127.32 120.089 128.471 121.24 129.89 121.24Z" fill="#989691"/>
<path d="M111.09 124.23C112.509 124.23 113.66 123.079 113.66 121.66C113.66 120.241 112.509 119.09 111.09 119.09C109.671 119.09 108.52 120.241 108.52 121.66C108.52 123.079 109.671 124.23 111.09 124.23Z" fill="#989691"/>
<path d="M123.86 88.7699C125.279 88.7699 126.43 87.6193 126.43 86.1999C126.43 84.7805 125.279 83.6299 123.86 83.6299C122.441 83.6299 121.29 84.7805 121.29 86.1999C121.29 87.6193 122.441 88.7699 123.86 88.7699Z" fill="#989691"/>
<path d="M147.56 85.12C148.979 85.12 150.13 83.9694 150.13 82.55C150.13 81.1306 148.979 79.98 147.56 79.98C146.141 79.98 144.99 81.1306 144.99 82.55C144.99 83.9694 146.141 85.12 147.56 85.12Z" fill="#989691"/>
<path d="M191.7 94.05C191.7 94.05 195.31 102.5 190.37 104.96" stroke="#8B9ACE" stroke-width="2" stroke-miterlimit="10"/>
<path d="M191.7 96.62C193.119 96.62 194.27 95.4694 194.27 94.05C194.27 92.6306 193.119 91.48 191.7 91.48C190.281 91.48 189.13 92.6306 189.13 94.05C189.13 95.4694 190.281 96.62 191.7 96.62Z" fill="#989691"/>
<path d="M138.42 106.84H35.99C31.5772 106.84 28 110.417 28 114.83V183.73C28 188.143 31.5772 191.72 35.99 191.72H138.42C142.833 191.72 146.41 188.143 146.41 183.73V114.83C146.41 110.417 142.833 106.84 138.42 106.84Z" fill="white" stroke="#989691" stroke-width="2" stroke-miterlimit="10"/>
<mask id="mask0_26_37467" style="mask-type:luminance" maskUnits="userSpaceOnUse" x="33" y="115" width="108" height="71">
<path d="M136.54 115.23H37.31C35.2224 115.23 33.53 116.922 33.53 119.01V181.69C33.53 183.777 35.2224 185.47 37.31 185.47H136.54C138.628 185.47 140.32 183.777 140.32 181.69V119.01C140.32 116.922 138.628 115.23 136.54 115.23Z" fill="white"/>
</mask>
<g mask="url(#mask0_26_37467)">
<path d="M33.53 178.72V162.43C33.53 162.43 34.19 160.74 47.47 160.21C60.75 159.68 61.29 148.91 66.78 142.89C72.27 136.87 79.23 133.16 87.2 133.69C98.54 134.46 101.31 140.42 107.09 139.51C121.8 137.21 117.13 123.46 140.33 123.1V178.71H33.53V178.72Z" fill="#8B9ACE"/>
<path d="M33.53 185.47V169.18C33.53 169.18 36.01 163.34 49.29 162.8C62.57 162.26 67 159.79 72.49 153.77C77.98 147.75 85.42 141.9 93.39 141.37C101.36 140.84 105.26 145.8 111.1 145.62C116.94 145.44 117.12 130.21 140.32 129.86V185.47H33.53Z" fill="#D3EAE9"/>
</g>
<path d="M147.019 159.556L120.454 134.046C119.275 132.914 117.401 132.951 116.269 134.131L112.376 138.184C111.244 139.363 111.282 141.237 112.461 142.369L139.026 167.88C140.205 169.012 142.079 168.974 143.211 167.795L147.103 163.741C148.236 162.562 148.198 160.688 147.019 159.556Z" fill="#989691"/>
<path d="M174.689 184.814L148.124 159.304C146.945 158.172 145.071 158.21 143.939 159.389L138.8 164.741C137.667 165.92 137.705 167.794 138.884 168.926L165.449 194.436C166.628 195.568 168.502 195.531 169.634 194.351L174.774 189C175.906 187.82 175.868 185.947 174.689 184.814Z" fill="white" stroke="#989691" stroke-width="2" stroke-miterlimit="10"/>
<path d="M117.45 162.89C131.843 162.89 143.51 151.223 143.51 136.83C143.51 122.437 131.843 110.77 117.45 110.77C103.057 110.77 91.39 122.437 91.39 136.83C91.39 151.223 103.057 162.89 117.45 162.89Z" fill="white" stroke="#989691" stroke-width="2" stroke-miterlimit="10"/>
<path d="M117.45 157.85C129.059 157.85 138.47 148.439 138.47 136.83C138.47 125.221 129.059 115.81 117.45 115.81C105.841 115.81 96.43 125.221 96.43 136.83C96.43 148.439 105.841 157.85 117.45 157.85Z" fill="#D3EAE9"/>
<path d="M129.75 124.03C137.73 131.69 138.34 144.13 131.43 152.53C131.83 152.17 132.23 151.8 132.61 151.4C140.65 143.03 140.38 129.72 132.01 121.68C123.64 113.64 110.33 113.91 102.29 122.28C101.91 122.68 101.55 123.09 101.21 123.51C109.32 116.27 121.77 116.38 129.75 124.04V124.03Z" fill="#8B9ACE"/>
<path d="M153.3 164.27L148.18 169.59" stroke="#989691" stroke-width="2" stroke-miterlimit="10"/>
<path d="M158.32 169.1L153.21 174.42" stroke="#989691" stroke-width="2" stroke-miterlimit="10"/>
<path d="M162.9 173.49L157.78 178.81" stroke="#989691" stroke-width="2" stroke-miterlimit="10"/>
<path d="M183.83 157.82H173.76V173.19H183.83V157.82Z" fill="#8B9ACE" stroke="#989691" stroke-width="2" stroke-miterlimit="10"/>
<path d="M193.9 142.08H183.83V173.19H193.9V142.08Z" fill="white" stroke="#989691" stroke-width="2" stroke-miterlimit="10"/>
<path d="M203.19 131.86H193.12V173.19H203.19V131.86Z" fill="#D3EAE9" stroke="#989691" stroke-width="2" stroke-miterlimit="10"/>
<path d="M213.47 149.57H203.4V173.19H213.47V149.57Z" fill="#8B9ACE" stroke="#989691" stroke-width="2" stroke-miterlimit="10"/>
<path d="M222.82 137.57H212.75V173.19H222.82V137.57Z" fill="white" stroke="#989691" stroke-width="2" stroke-miterlimit="10"/>
</svg>
