<svg width="250" height="250" viewBox="0 0 250 250" fill="none" xmlns="http://www.w3.org/2000/svg">
<g clip-path="url(#clip0_25_37013)">
<path d="M115.74 73.03C120.29 80.45 130.54 83.3 139.51 86.29C148.48 89.28 158.38 94.5599 159.19 102.87C159.7 108.1 156.3 113.09 156.98 118.31C158.37 129.08 174.46 132.91 182.03 141.64C187.48 147.92 187.99 156.79 184.41 163.82C180.84 170.84 173.65 176.08 165.55 179.07C148.83 185.23 128.36 182.04 113.27 172.54C98.18 163.04 88.33 147.9 84.58 132.1C80.83 116.3 82.82 99.9 88.02 84.65C89.95 78.99 92.71 73.02 98.53 70.08C104.35 67.14 113.84 69.36 115 75.26" fill="#8B9ACE"/>
<path d="M122.4 128.94C141.371 128.94 156.75 112.164 156.75 91.47C156.75 70.7759 141.371 54 122.4 54C103.429 54 88.05 70.7759 88.05 91.47C88.05 112.164 103.429 128.94 122.4 128.94Z" fill="#8B9ACE"/>
<path d="M124.67 158.12C124.67 158.12 92.55 148.07 77.24 183.74H165.43C165.43 183.74 159.09 150.84 124.67 158.12Z" fill="#D3EAE9"/>
<path d="M138.51 121.77L108.54 126.86L108.26 163.46C108.26 163.46 109.98 172.94 125.47 173.21C140.09 173.46 141.07 163.03 141.07 163.03L138.5 121.78L138.51 121.77Z" fill="white"/>
<path d="M108.39 147.66C108.39 147.66 127.46 149.26 139.26 133.75L138.51 121.77L108.54 126.86L108.38 147.66H108.39Z" fill="#989691"/>
<path d="M159.25 105.03C159.25 107.94 155.71 112.06 151.64 110.88C148.84 110.07 145.27 107.94 145.27 105.03C145.27 102.12 149.35 99.1899 152.26 99.1899C156.96 99.1899 159.25 102.12 159.25 105.03Z" fill="white"/>
<path d="M153.97 107.19C153.94 106.54 154.06 105.92 154.25 105.31C154.47 104.71 154.69 104.09 155.38 103.58C155.53 103.46 155.82 103.36 156.07 103.36C156.2 103.37 156.35 103.38 156.46 103.43C156.56 103.48 156.67 103.54 156.77 103.61C156.95 103.74 157.04 103.9 157.17 104.05C157.35 104.31 157.34 104.52 157.35 104.7C157.34 105.41 157.14 105.99 156.83 106.57C156.72 105.94 156.7 105.31 156.57 104.8C156.54 104.68 156.48 104.58 156.47 104.59C156.38 104.53 156.3 104.42 156.22 104.39C156.07 104.3 156.07 104.34 155.91 104.42C155.59 104.62 155.25 105.16 154.94 105.64C154.63 106.14 154.32 106.67 153.95 107.19H153.97Z" fill="#989691"/>
<path d="M89.68 105.03C89.68 107.94 93.22 112.06 97.29 110.88C100.09 110.07 103.66 107.94 103.66 105.03C103.66 102.12 99.58 99.1899 96.67 99.1899C91.97 99.1899 89.68 102.12 89.68 105.03Z" fill="white"/>
<path d="M94.95 107.19C94.58 106.66 94.27 106.14 93.96 105.64C93.65 105.16 93.32 104.62 92.99 104.42C92.83 104.34 92.84 104.3 92.68 104.39C92.61 104.42 92.52 104.52 92.43 104.59C92.42 104.58 92.36 104.68 92.33 104.8C92.21 105.31 92.18 105.95 92.07 106.57C91.77 106 91.56 105.41 91.55 104.7C91.55 104.52 91.55 104.31 91.73 104.05C91.86 103.9 91.95 103.74 92.13 103.61C92.23 103.54 92.33 103.49 92.44 103.43C92.55 103.39 92.7 103.38 92.83 103.36C93.08 103.36 93.36 103.45 93.52 103.58C94.2 104.1 94.43 104.71 94.65 105.31C94.85 105.92 94.96 106.54 94.93 107.19H94.95Z" fill="#989691"/>
<path d="M152.24 97.4399C152.76 117.77 143.14 137.21 126.42 137.63C109.7 138.06 97.63 120.7 97.11 100.37C96.59 80.0399 107.82 64.43 124.53 64C141.25 63.57 151.71 77.0999 152.23 97.4399H152.24Z" fill="white"/>
<path d="M115.1 98.48C115.07 99.61 114.37 100.5 113.54 100.48C112.71 100.46 112.05 99.53 112.08 98.4C112.11 97.27 112.81 96.38 113.64 96.4C114.47 96.42 115.13 97.35 115.1 98.48Z" fill="#989691"/>
<path d="M136.84 98.48C136.81 99.61 136.11 100.5 135.28 100.48C134.45 100.46 133.79 99.53 133.82 98.4C133.85 97.27 134.55 96.38 135.38 96.4C136.21 96.42 136.87 97.35 136.84 98.48Z" fill="#989691"/>
<path d="M123.71 105.58L127.25 103.34C125.31 101.99 124.49 98.1299 124.49 98.1299" stroke="#989691" stroke-miterlimit="10"/>
<path d="M122.4 113.96H129.78C129.78 113.96 130.1 121.07 126.09 121.15C122.08 121.23 122.4 113.96 122.4 113.96Z" fill="#989691"/>
<path d="M139.26 59.72C133.21 54.8 122.18 56.89 122.18 56.89C112.12 58.11 102.96 63.93 98.38 72.96C91.33 86.86 97.33 101.5 97.33 101.5C113.47 95.65 123.6 77.77 127.88 68.58C129.78 77.81 135.6 90.3399 152.26 99.1899C152.26 99.1899 156.99 74.14 139.26 59.72Z" fill="#8B9ACE"/>
<path d="M169.88 81L151.75 94.82L160.23 109.04L180.64 99.04L169.88 81Z" fill="#D3EAE9"/>
<path d="M180.634 99.0421C181.559 98.4907 179.902 94.0056 176.933 89.0245C173.963 84.0434 170.806 80.4525 169.881 81.004C168.956 81.5554 170.613 86.0404 173.583 91.0215C176.552 96.0026 179.709 99.5936 180.634 99.0421Z" fill="#989691"/>
<path d="M160.237 109.056C161.162 108.505 160.014 104.873 157.673 100.945C155.331 97.0173 152.683 94.2801 151.758 94.8316C150.833 95.383 151.981 99.0143 154.323 102.942C156.664 106.87 159.312 109.607 160.237 109.056Z" fill="#D3EAE9"/>
<path d="M62.09 132.87L84.62 136.32L88.97 120.34L67.6 112.61L62.09 132.87Z" fill="#D3EAE9"/>
<path d="M66.7318 123.244C68.2542 117.649 68.6459 112.884 67.6067 112.601C66.5675 112.318 64.491 116.625 62.9686 122.221C61.4462 127.816 61.0545 132.581 62.0937 132.864C63.1328 133.147 65.2094 128.84 66.7318 123.244Z" fill="#989691"/>
<path d="M88.6785 128.829C89.879 124.417 90.0098 120.61 88.9706 120.328C87.9315 120.045 86.1158 123.393 84.9153 127.805C83.7148 132.218 83.584 136.024 84.6232 136.307C85.6624 136.59 87.478 133.242 88.6785 128.829Z" fill="#D3EAE9"/>
<path d="M81.33 143.3C84.3123 143.3 86.73 139.467 86.73 134.74C86.73 130.012 84.3123 126.18 81.33 126.18C78.3477 126.18 75.93 130.012 75.93 134.74C75.93 139.467 78.3477 143.3 81.33 143.3Z" fill="white"/>
<path d="M84.3 142.3C84.3 142.3 89.07 136.07 85.42 128.95C85.42 128.95 86.51 137.34 83.43 141.17C80.35 145 84.3 142.3 84.3 142.3Z" fill="#989691"/>
<path d="M104.61 158.03C104.61 158.03 93.89 161.98 87.6 165.08C81.03 168.32 71.97 168.4 71.98 165.5C72 160.72 80.33 148.08 84.23 142.31C84.23 142.31 82 138.49 77.55 137.65C73.09 136.81 57.86 151.14 55.29 157.78C49.57 172.55 50.82 181.23 51.65 183.81L90.79 183.75" fill="#D3EAE9"/>
<path d="M57.69 120.19C57.69 120.19 53.97 121.74 55.92 126.64" stroke="#989691" stroke-miterlimit="10"/>
<path d="M52.77 115.42C52.77 115.42 47.54 116.86 49.87 128.31" stroke="#989691" stroke-miterlimit="10"/>
<path d="M45.84 109.59C45.84 109.59 39.66 116.15 42.06 129.77" stroke="#989691" stroke-miterlimit="10"/>
<path d="M88.68 128.83C88.68 128.83 96.01 129.69 93.44 149.1C90.87 168.51 98.55 184.92 108.26 192.77C117.97 200.62 122.7 184.95 139.25 181.73C155.8 178.5 155.81 141.74 153.97 130.93C152.13 120.12 149.37 108.24 154.32 102.94" stroke="#989691" stroke-miterlimit="10"/>
<path d="M159.8 119.62C159.8 119.62 149.12 113.73 148.44 105.57C147.76 97.4101 159.38 99.4101 166.17 114.4L159.8 119.62Z" fill="white"/>
<path d="M148.44 105.57C148.44 105.57 147.75 112.59 159.8 119.62L162.79 117.96C162.79 117.96 154.35 118.6 148.45 105.58L148.44 105.57Z" fill="#989691"/>
<path d="M159.8 119.62C159.8 119.62 169.19 145.58 166.17 152.81C163.62 158.89 153.98 164.08 153.98 164.08L165.99 183.81C165.99 183.81 182.9 180.86 190.43 164.44C197.96 148.02 166.17 114.4 166.17 114.4C166.17 114.4 160.65 115.86 159.8 119.62Z" fill="#D3EAE9"/>
<path d="M208.93 81C206.89 80.97 207.99 69.43 205.8 69.59C203.61 69.75 205.64 85.89 203.45 85.89C201.26 85.89 201.88 76.64 199.53 76.64C197.18 76.64 198.59 89.02 196.55 88.71C194.51 88.4 196.39 79.62 193.57 79.62C190.75 79.62 193.26 95.45 190.44 95.02C187.62 94.59 190.28 73.98 186.71 73.98C183.14 73.98 182.51 84.54 182.51 84.54C182.51 84.54 181.03 92.44 177.95 84.72C174.87 77 174.53 84.98 175.28 88.58" stroke="#8B9ACE" stroke-miterlimit="10"/>
</g>
<defs>
<clipPath id="clip0_25_37013">
<rect width="167.94" height="141.45" fill="white" transform="translate(41 54)"/>
</clipPath>
</defs>
</svg>
