<svg width="250" height="250" viewBox="0 0 250 250" fill="none" xmlns="http://www.w3.org/2000/svg">
<g clip-path="url(#clip0_25_37014)">
<path d="M128.77 49.0601C124.59 55.8801 115.18 58.4901 106.93 61.2401C98.69 63.9801 89.6 68.8401 88.85 76.4701C88.38 81.2701 91.5 85.8601 90.88 90.6501C89.6 100.54 74.82 104.06 67.87 112.08C62.87 117.85 62.4 126 65.68 132.45C68.96 138.9 75.56 143.71 83 146.46C98.36 152.12 117.16 149.19 131.02 140.46C144.88 131.73 153.93 117.83 157.37 103.32C160.81 88.8101 158.99 73.7401 154.21 59.7301C152.44 54.5301 149.91 49.0501 144.56 46.3501C139.21 43.6501 130.5 45.6901 129.43 51.1101" fill="#8B9ACE"/>
<path d="M138.63 50.87C140.41 58.17 147.47 62.28 153.54 66.32C159.61 70.35 165.87 76.57 164.65 84.1C163.89 88.83 160.24 92.76 159.6 97.5C158.28 107.3 169.5 113.18 173.26 122.11C175.96 128.54 174.4 136.51 170.18 142.22C165.96 147.93 159.42 151.49 152.7 152.9C138.82 155.83 124.17 149.84 114.95 139.07C105.73 128.3 101.66 113.31 102.32 98.67C102.98 84.03 108.06 69.73 115.31 56.95C118 52.2 121.37 47.32 126.38 45.59C131.39 43.86 138.01 47.3 137.59 52.73" fill="#8B9ACE"/>
<path d="M119.47 103.84C136.895 103.84 151.02 88.4296 151.02 69.42C151.02 50.4104 136.895 35 119.47 35C102.045 35 87.92 50.4104 87.92 69.42C87.92 88.4296 102.045 103.84 119.47 103.84Z" fill="#8B9ACE"/>
<path d="M127.94 130.64C127.94 130.64 68.51 122.38 58.76 154.17H191.76C191.76 154.17 183.64 123.4 127.94 130.64Z" fill="#D3EAE9"/>
<path d="M134.27 97.25L106.75 101.92L106.5 135.54C106.5 135.54 108.08 144.25 122.31 144.49C135.74 144.72 136.64 135.14 136.64 135.14L134.28 97.25H134.27Z" fill="white"/>
<path d="M106.6 121.03C106.6 121.03 124.12 122.5 134.95 108.25L134.26 97.25L106.74 101.92L106.6 121.03Z" fill="#989691"/>
<path d="M153.31 81.87C153.31 84.54 150.06 88.33 146.32 87.24C143.75 86.49 140.47 84.54 140.47 81.87C140.47 79.2 144.22 76.51 146.89 76.51C151.21 76.51 153.31 79.2 153.31 81.87Z" fill="white"/>
<path d="M148.47 83.85C148.43 83.25 148.53 82.6701 148.7 82.1101C148.9 81.5501 149.1 80.98 149.74 80.5C149.88 80.39 150.16 80.3 150.39 80.3C150.52 80.31 150.66 80.3201 150.76 80.3601C150.86 80.4101 150.96 80.46 151.05 80.53C151.22 80.66 151.31 80.8101 151.43 80.9501C151.6 81.2001 151.59 81.4001 151.6 81.5601C151.59 82.2201 151.39 82.75 151.09 83.28C150.98 82.7 150.94 82.1201 150.82 81.6501C150.79 81.5401 150.74 81.4501 150.73 81.4701C150.65 81.4201 150.57 81.32 150.51 81.3C150.38 81.23 150.41 81.2601 150.27 81.3301C149.99 81.5001 149.68 81.99 149.39 82.43C149.1 82.89 148.81 83.37 148.45 83.84L148.47 83.85Z" fill="#989691"/>
<path d="M89.41 81.87C89.41 84.54 92.66 88.33 96.4 87.24C98.97 86.49 102.25 84.54 102.25 81.87C102.25 79.2 98.5 76.51 95.83 76.51C91.51 76.51 89.41 79.2 89.41 81.87Z" fill="white"/>
<path d="M94.26 83.8501C93.9 83.3701 93.61 82.8901 93.32 82.4401C93.03 82.0001 92.72 81.5101 92.44 81.3401C92.3 81.2701 92.34 81.2401 92.2 81.3101C92.14 81.3301 92.06 81.4301 91.98 81.4801C91.98 81.4601 91.92 81.5501 91.89 81.6601C91.77 82.1201 91.73 82.7101 91.62 83.2901C91.33 82.7601 91.13 82.2301 91.11 81.5701C91.11 81.4001 91.11 81.2001 91.28 80.9601C91.4 80.8201 91.49 80.6701 91.66 80.5401C91.75 80.4801 91.85 80.4201 91.95 80.3701C92.06 80.3301 92.2 80.3201 92.32 80.3101C92.56 80.3101 92.83 80.4001 92.97 80.5101C93.61 81.0001 93.82 81.5601 94.01 82.1201C94.19 82.6801 94.28 83.2601 94.24 83.8601L94.26 83.8501Z" fill="#989691"/>
<path d="M146.87 74.9001C147.35 93.5701 138.51 111.42 123.15 111.82C107.8 112.21 96.71 96.2701 96.23 77.6001C95.75 58.9301 106.07 44.5901 121.42 44.2001C136.77 43.8101 146.39 56.2401 146.87 74.9101V74.9001Z" fill="white"/>
<path d="M112.76 75.8501C112.73 76.8801 112.09 77.7101 111.33 77.6901C110.56 77.6701 109.96 76.8201 109.99 75.7801C110.02 74.7401 110.66 73.9201 111.42 73.9401C112.19 73.9601 112.79 74.8101 112.76 75.8501Z" fill="#989691"/>
<path d="M132.74 75.8501C132.71 76.8801 132.07 77.7101 131.31 77.6901C130.54 77.6701 129.94 76.8201 129.97 75.7801C130 74.7401 130.64 73.9201 131.4 73.9401C132.17 73.9601 132.77 74.8101 132.74 75.8501Z" fill="#989691"/>
<path d="M115.57 85.6301C115.57 85.6301 120.91 96.7701 129.02 85.9601" stroke="#989691" stroke-miterlimit="10"/>
<path d="M120.67 82.38L123.92 80.32C122.14 79.08 121.38 75.54 121.38 75.54" stroke="#989691" stroke-miterlimit="10"/>
<path d="M134.95 40.26C129.4 35.74 119.26 37.66 119.26 37.66C110.02 38.78 101.61 44.12 97.4 52.42C90.93 65.19 96.44 78.63 96.44 78.63C111.27 73.26 120.57 56.83 124.5 48.39C126.25 56.87 131.59 68.37 146.89 76.5C146.89 76.5 151.24 53.5 134.95 40.25V40.26Z" fill="#8B9ACE"/>
<path d="M125.88 159.53H115.9L110.92 168.17L115.9 176.8H125.88L130.86 168.17L125.88 159.53Z" stroke="#989691" stroke-miterlimit="10"/>
<path d="M108.53 169.31H98.55L93.57 177.94L98.55 186.58H108.53L113.51 177.94L108.53 169.31Z" fill="#989691"/>
<path d="M108.53 188.45H98.55L93.57 197.08L98.55 205.72H108.53L113.51 197.08L108.53 188.45Z" stroke="#989691" stroke-miterlimit="10"/>
<path d="M91.24 159.53H81.27L76.28 168.17L81.27 176.8H91.24L96.22 168.17L91.24 159.53Z" fill="#989691"/>
<path d="M143.13 169.31H133.16L128.18 177.94L133.16 186.58H143.13L148.12 177.94L143.13 169.31Z" fill="#989691"/>
<path d="M160.88 179.81H150.91L145.92 188.45L150.91 197.08H160.88L165.86 188.45L160.88 179.81Z" fill="#989691"/>
<path d="M143.42 189.66H133.45L128.46 198.3L133.45 206.93H143.42L148.4 198.3L143.42 189.66Z" stroke="#989691" stroke-miterlimit="10"/>
<path d="M125.88 178.9H115.9L110.92 187.54L115.9 196.17H125.88L130.86 187.54L125.88 178.9Z" fill="#8B9ACE"/>
<path d="M125.88 198.28H115.9L110.92 206.91L115.9 215.55H125.88L130.86 206.91L125.88 198.28Z" fill="#989691"/>
<path d="M91.24 178.9H81.27L76.28 187.54L81.27 196.17H91.24L96.22 187.54L91.24 178.9Z" fill="#8B9ACE"/>
<path d="M143.42 150.13H133.45L128.46 158.77L133.45 167.4H143.42L148.4 158.77L143.42 150.13Z" fill="#8B9ACE"/>
<path d="M160.88 160.08H150.91L145.92 168.71L150.91 177.35H160.88L165.86 168.71L160.88 160.08Z" stroke="#8B9ACE" stroke-miterlimit="10"/>
<path d="M108.53 149.35H98.55L93.57 157.99L98.55 166.62H108.53L113.51 157.99L108.53 149.35Z" fill="#8B9ACE"/>
<path d="M101.86 194.3C101.86 194.3 111.23 200.44 118.14 197.49C125.06 194.54 118.44 185.96 103.36 186.89L101.85 194.3H101.86Z" fill="white"/>
<path d="M118.15 197.49C118.15 197.49 112.74 201.07 101.87 194.3L101.94 191.16C101.94 191.16 105.04 198.28 118.15 197.49Z" fill="#989691"/>
<path d="M104.52 187.27C104.52 187.27 83.46 173.03 81.91 166.01C80.36 158.99 88.18 151.36 88.18 151.36L65.35 142.84C65.35 142.84 54.35 154.14 57.6 170.41C60.84 186.68 102.6 194.58 102.6 194.58C102.6 194.58 105.92 190.53 104.53 187.27H104.52Z" fill="#D3EAE9"/>
<path d="M159.16 197.5C159.16 197.5 153.43 207.13 145.92 207.5C138.41 207.88 140.6 197.27 154.56 191.5L159.16 197.5Z" fill="white"/>
<path d="M145.92 207.5C145.92 207.5 152.35 208.35 159.16 197.5L157.72 194.71C157.72 194.71 158.05 202.47 145.92 207.5Z" fill="#989691"/>
<path d="M154.21 192.04C154.21 192.04 170.01 172.12 169.37 164.96C168.74 157.8 158.98 152.88 158.98 152.88L178.19 137.89C178.19 137.89 192.08 145.36 193.88 161.85C195.68 178.34 158.24 198.43 158.24 198.43C158.24 198.43 153.85 195.56 154.2 192.03L154.21 192.04Z" fill="#D3EAE9"/>
<path d="M160.88 140.72H150.91L145.92 149.35L150.91 157.99H160.88L165.86 149.35L160.88 140.72Z" fill="#989691"/>
</g>
<defs>
<clipPath id="clip0_25_37014">
<rect width="136.95" height="180.55" fill="white" transform="translate(57 35)"/>
</clipPath>
</defs>
</svg>
