<svg width="24" height="24" viewBox="0 0 24 24" fill="none" xmlns="http://www.w3.org/2000/svg">
<path fill-rule="evenodd" clip-rule="evenodd" d="M13.1531 12.1115C13.1531 14.9344 10.8802 17.2228 8.07663 17.2228C5.27305 17.2228 3 14.9344 3 12.1115C3 9.28857 5.27287 7 8.07663 7C10.8804 7 13.1531 9.28857 13.1531 12.1115ZM18.7221 12.1113C18.7221 14.7685 17.5857 16.9234 16.1838 16.9234C14.7819 16.9234 13.6455 14.7685 13.6455 12.1113C13.6455 9.45417 14.7818 7.29927 16.1836 7.29927C17.5855 7.29927 18.7219 9.45348 18.7219 12.1113H18.7221ZM20.1073 16.4224C20.6004 16.4224 21 14.4917 21 12.1115C21 9.73068 20.6002 7.80068 20.1073 7.80068C19.6143 7.80068 19.2147 9.73085 19.2147 12.1115C19.2147 14.4922 19.6142 16.4224 20.1073 16.4224Z" fill="#4758DC"/>
</svg>
